<?xml version="1.0" encoding="UTF-8" standalone="no"?>
<!DOCTYPE svg PUBLIC "-//W3C//DTD SVG 1.1//EN"
 "http://www.w3.org/Graphics/SVG/1.1/DTD/svg11.dtd">
<!-- Generated by graphviz version 2.38.0 (20140413.2041)
 -->
<!-- Title: controllers_diagram Pages: 1 -->
<svg width="412pt" height="417pt"
 viewBox="0.00 0.00 412.00 416.50" xmlns="http://www.w3.org/2000/svg" xmlns:xlink="http://www.w3.org/1999/xlink">
<g id="graph0" class="graph" transform="scale(1 1) rotate(0) translate(108.5 293)">
<title>controllers_diagram</title>
<polygon fill="none" stroke="none" points="-108.5,123.5 -108.5,-293 303.5,-293 303.5,123.5 -108.5,123.5"/>
<!-- _diagram_info -->
<g id="node1" class="node"><title>_diagram_info</title>
<text text-anchor="start" x="98.5" y="-153.6" font-family="Times New Roman,serif" font-size="13.00">Controllers diagram</text>
<text text-anchor="start" x="98.5" y="-139.6" font-family="Times New Roman,serif" font-size="13.00">Date: Jan 14 2019 &#45; 00:16</text>
<text text-anchor="start" x="98.5" y="-125.6" font-family="Times New Roman,serif" font-size="13.00">Migration version: 20190111124635</text>
<text text-anchor="start" x="98.5" y="-111.6" font-family="Times New Roman,serif" font-size="13.00">Generated by RailRoady 1.5.3</text>
<text text-anchor="start" x="98.5" y="-97.6" font-family="Times New Roman,serif" font-size="13.00">http://railroady.prestonlee.com</text>
</g>
<!-- ApplicationController -->
<g id="node2" class="node"><title>ApplicationController</title>
<path fill="none" stroke="black" d="M-92.5,74C-92.5,74 80.5,74 80.5,74 86.5,74 92.5,68 92.5,62 92.5,62 92.5,-52 92.5,-52 92.5,-58 86.5,-64 80.5,-64 80.5,-64 -92.5,-64 -92.5,-64 -98.5,-64 -104.5,-58 -104.5,-52 -104.5,-52 -104.5,62 -104.5,62 -104.5,68 -98.5,74 -92.5,74"/>
<text text-anchor="middle" x="-6" y="-48.8" font-family="Times New Roman,serif" font-size="14.00">ApplicationController</text>
<polyline fill="none" stroke="black" points="-104.5,-41 92.5,-41 "/>
<polyline fill="none" stroke="black" points="-104.5,-17 92.5,-17 "/>
<text text-anchor="start" x="-96.5" y="-1.8" font-family="Times New Roman,serif" font-size="14.00">def</text>
<text text-anchor="start" x="-96.5" y="13.2" font-family="Times New Roman,serif" font-size="14.00">default_url_options</text>
<text text-anchor="start" x="-96.5" y="28.2" font-family="Times New Roman,serif" font-size="14.00">set_locale</text>
<text text-anchor="start" x="-96.5" y="43.2" font-family="Times New Roman,serif" font-size="14.00">configure_permitted_parameters</text>
<polyline fill="none" stroke="black" points="-104.5,51 92.5,51 "/>
<text text-anchor="start" x="-96.5" y="66.2" font-family="Times New Roman,serif" font-size="14.00">_layout</text>
</g>
<!-- PostController -->
<g id="node3" class="node"><title>PostController</title>
<path fill="none" stroke="black" d="M207,-195.5C207,-195.5 281,-195.5 281,-195.5 287,-195.5 293,-201.5 293,-207.5 293,-207.5 293,-276.5 293,-276.5 293,-282.5 287,-288.5 281,-288.5 281,-288.5 207,-288.5 207,-288.5 201,-288.5 195,-282.5 195,-276.5 195,-276.5 195,-207.5 195,-207.5 195,-201.5 201,-195.5 207,-195.5"/>
<text text-anchor="middle" x="244" y="-273.3" font-family="Times New Roman,serif" font-size="14.00">PostController</text>
<polyline fill="none" stroke="black" points="195,-265.5 293,-265.5 "/>
<text text-anchor="start" x="203" y="-250.3" font-family="Times New Roman,serif" font-size="14.00">create</text>
<polyline fill="none" stroke="black" points="195,-242.5 293,-242.5 "/>
<polyline fill="none" stroke="black" points="195,-218.5 293,-218.5 "/>
<text text-anchor="start" x="203" y="-203.3" font-family="Times New Roman,serif" font-size="14.00">_layout</text>
</g>
<!-- TopicsController -->
<g id="node4" class="node"><title>TopicsController</title>
<path fill="none" stroke="black" d="M-47.5,-91C-47.5,-91 41.5,-91 41.5,-91 47.5,-91 53.5,-97 53.5,-103 53.5,-103 53.5,-217 53.5,-217 53.5,-223 47.5,-229 41.5,-229 41.5,-229 -47.5,-229 -47.5,-229 -53.5,-229 -59.5,-223 -59.5,-217 -59.5,-217 -59.5,-103 -59.5,-103 -59.5,-97 -53.5,-91 -47.5,-91"/>
<text text-anchor="middle" x="-3" y="-213.8" font-family="Times New Roman,serif" font-size="14.00">TopicsController</text>
<polyline fill="none" stroke="black" points="-59.5,-206 53.5,-206 "/>
<text text-anchor="start" x="-51.5" y="-190.8" font-family="Times New Roman,serif" font-size="14.00">delete</text>
<text text-anchor="start" x="-51.5" y="-175.8" font-family="Times New Roman,serif" font-size="14.00">index</text>
<text text-anchor="start" x="-51.5" y="-160.8" font-family="Times New Roman,serif" font-size="14.00">show</text>
<text text-anchor="start" x="-51.5" y="-145.8" font-family="Times New Roman,serif" font-size="14.00">create</text>
<polyline fill="none" stroke="black" points="-59.5,-138 53.5,-138 "/>
<polyline fill="none" stroke="black" points="-59.5,-114 53.5,-114 "/>
<text text-anchor="start" x="-51.5" y="-98.8" font-family="Times New Roman,serif" font-size="14.00">_layout</text>
</g>
<!-- UsersController -->
<g id="node5" class="node"><title>UsersController</title>
<path fill="none" stroke="black" d="M132.5,119C132.5,119 213.5,119 213.5,119 219.5,119 225.5,113 225.5,107 225.5,107 225.5,23 225.5,23 225.5,17 219.5,11 213.5,11 213.5,11 132.5,11 132.5,11 126.5,11 120.5,17 120.5,23 120.5,23 120.5,107 120.5,107 120.5,113 126.5,119 132.5,119"/>
<text text-anchor="middle" x="173" y="26.2" font-family="Times New Roman,serif" font-size="14.00">UsersController</text>
<polyline fill="none" stroke="black" points="120.5,34 225.5,34 "/>
<text text-anchor="start" x="128.5" y="49.2" font-family="Times New Roman,serif" font-size="14.00">show</text>
<text text-anchor="start" x="128.5" y="64.2" font-family="Times New Roman,serif" font-size="14.00">index</text>
<polyline fill="none" stroke="black" points="120.5,72 225.5,72 "/>
<polyline fill="none" stroke="black" points="120.5,96 225.5,96 "/>
<text text-anchor="start" x="128.5" y="111.2" font-family="Times New Roman,serif" font-size="14.00">_layout</text>
</g>
</g>
</svg>
