<?xml version="1.0" encoding="UTF-8" standalone="no"?>
<!DOCTYPE svg PUBLIC "-//W3C//DTD SVG 1.1//EN"
 "http://www.w3.org/Graphics/SVG/1.1/DTD/svg11.dtd">
<!-- Generated by graphviz version 2.38.0 (20140413.2041)
 -->
<!-- Title: models_diagram Pages: 1 -->
<svg width="629pt" height="551pt"
 viewBox="0.00 0.00 628.50 551.00" xmlns="http://www.w3.org/2000/svg" xmlns:xlink="http://www.w3.org/1999/xlink">
<g id="graph0" class="graph" transform="scale(1 1) rotate(0) translate(4 547)">
<title>models_diagram</title>
<polygon fill="none" stroke="none" points="-4,4 -4,-547 624.5,-547 624.5,4 -4,4"/>
<!-- _diagram_info -->
<g id="node1" class="node"><title>_diagram_info</title>
<text text-anchor="start" x="8" y="-454.1" font-family="Times New Roman,serif" font-size="13.00">Models diagram</text>
<text text-anchor="start" x="8" y="-440.1" font-family="Times New Roman,serif" font-size="13.00">Date: Jan 14 2019 &#45; 00:24</text>
<text text-anchor="start" x="8" y="-426.1" font-family="Times New Roman,serif" font-size="13.00">Migration version: 20190111124635</text>
<text text-anchor="start" x="8" y="-412.1" font-family="Times New Roman,serif" font-size="13.00">Generated by RailRoady 1.5.3</text>
<text text-anchor="start" x="8" y="-398.1" font-family="Times New Roman,serif" font-size="13.00">http://railroady.prestonlee.com</text>
</g>
<!-- ApplicationRecord -->
<g id="node2" class="node"><title>ApplicationRecord</title>
<ellipse fill="none" stroke="black" cx="306.5" cy="-429.5" rx="79.8859" ry="18"/>
<text text-anchor="middle" x="306.5" y="-425.8" font-family="Times New Roman,serif" font-size="14.00">ApplicationRecord</text>
</g>
<!-- Post -->
<g id="node3" class="node"><title>Post</title>
<path fill="none" stroke="black" d="M453.5,-0.5C453.5,-0.5 561.5,-0.5 561.5,-0.5 567.5,-0.5 573.5,-6.5 573.5,-12.5 573.5,-12.5 573.5,-124.5 573.5,-124.5 573.5,-130.5 567.5,-136.5 561.5,-136.5 561.5,-136.5 453.5,-136.5 453.5,-136.5 447.5,-136.5 441.5,-130.5 441.5,-124.5 441.5,-124.5 441.5,-12.5 441.5,-12.5 441.5,-6.5 447.5,-0.5 453.5,-0.5"/>
<text text-anchor="middle" x="507.5" y="-121.3" font-family="Times New Roman,serif" font-size="14.00">Post</text>
<polyline fill="none" stroke="black" points="441.5,-113.5 573.5,-113.5 "/>
<text text-anchor="start" x="449.5" y="-98.3" font-family="Times New Roman,serif" font-size="14.00">name :varchar</text>
<text text-anchor="start" x="449.5" y="-83.3" font-family="Times New Roman,serif" font-size="14.00">body :text</text>
<text text-anchor="start" x="449.5" y="-68.3" font-family="Times New Roman,serif" font-size="14.00">topic_id :integer</text>
<text text-anchor="start" x="449.5" y="-53.3" font-family="Times New Roman,serif" font-size="14.00">created_at :datetime</text>
<text text-anchor="start" x="449.5" y="-38.3" font-family="Times New Roman,serif" font-size="14.00">updated_at :datetime</text>
<text text-anchor="start" x="449.5" y="-23.3" font-family="Times New Roman,serif" font-size="14.00">user_id :integer</text>
<text text-anchor="start" x="449.5" y="-8.3" font-family="Times New Roman,serif" font-size="14.00">id :integer</text>
</g>
<!-- Topic -->
<g id="node4" class="node"><title>Topic</title>
<path fill="none" stroke="black" d="M500.5,-173.5C500.5,-173.5 608.5,-173.5 608.5,-173.5 614.5,-173.5 620.5,-179.5 620.5,-185.5 620.5,-185.5 620.5,-267.5 620.5,-267.5 620.5,-273.5 614.5,-279.5 608.5,-279.5 608.5,-279.5 500.5,-279.5 500.5,-279.5 494.5,-279.5 488.5,-273.5 488.5,-267.5 488.5,-267.5 488.5,-185.5 488.5,-185.5 488.5,-179.5 494.5,-173.5 500.5,-173.5"/>
<text text-anchor="middle" x="554.5" y="-264.3" font-family="Times New Roman,serif" font-size="14.00">Topic</text>
<polyline fill="none" stroke="black" points="488.5,-256.5 620.5,-256.5 "/>
<text text-anchor="start" x="496.5" y="-241.3" font-family="Times New Roman,serif" font-size="14.00">title :varchar</text>
<text text-anchor="start" x="496.5" y="-226.3" font-family="Times New Roman,serif" font-size="14.00">created_at :datetime</text>
<text text-anchor="start" x="496.5" y="-211.3" font-family="Times New Roman,serif" font-size="14.00">updated_at :datetime</text>
<text text-anchor="start" x="496.5" y="-196.3" font-family="Times New Roman,serif" font-size="14.00">user_id :integer</text>
<text text-anchor="start" x="496.5" y="-181.3" font-family="Times New Roman,serif" font-size="14.00">id :integer</text>
</g>
<!-- Topic&#45;&gt;Post -->
<g id="edge1" class="edge"><title>Topic&#45;&gt;Post</title>
<path fill="none" stroke="#257068" d="M536.375,-165.342C534.521,-159.188 532.62,-152.877 530.721,-146.575"/>
<ellipse fill="none" stroke="#257068" cx="537.565" cy="-169.29" rx="4.00001" ry="4.00001"/>
<polygon fill="#257068" stroke="#257068" points="530.631,-146.276 532.055,-135.403 529.189,-141.489 527.747,-136.701 527.747,-136.701 527.747,-136.701 529.189,-141.489 523.438,-138 530.631,-146.276 530.631,-146.276"/>
</g>
<!-- User -->
<g id="node5" class="node"><title>User</title>
<path fill="none" stroke="black" d="M416.5,-316.5C416.5,-316.5 598.5,-316.5 598.5,-316.5 604.5,-316.5 610.5,-322.5 610.5,-328.5 610.5,-328.5 610.5,-530.5 610.5,-530.5 610.5,-536.5 604.5,-542.5 598.5,-542.5 598.5,-542.5 416.5,-542.5 416.5,-542.5 410.5,-542.5 404.5,-536.5 404.5,-530.5 404.5,-530.5 404.5,-328.5 404.5,-328.5 404.5,-322.5 410.5,-316.5 416.5,-316.5"/>
<text text-anchor="middle" x="507.5" y="-527.3" font-family="Times New Roman,serif" font-size="14.00">User</text>
<polyline fill="none" stroke="black" points="404.5,-519.5 610.5,-519.5 "/>
<text text-anchor="start" x="412.5" y="-504.3" font-family="Times New Roman,serif" font-size="14.00">id :integer</text>
<text text-anchor="start" x="412.5" y="-489.3" font-family="Times New Roman,serif" font-size="14.00">email :varchar</text>
<text text-anchor="start" x="412.5" y="-474.3" font-family="Times New Roman,serif" font-size="14.00">encrypted_password :varchar</text>
<text text-anchor="start" x="412.5" y="-459.3" font-family="Times New Roman,serif" font-size="14.00">reset_password_token :varchar</text>
<text text-anchor="start" x="412.5" y="-444.3" font-family="Times New Roman,serif" font-size="14.00">reset_password_sent_at :datetime</text>
<text text-anchor="start" x="412.5" y="-429.3" font-family="Times New Roman,serif" font-size="14.00">remember_created_at :datetime</text>
<text text-anchor="start" x="412.5" y="-414.3" font-family="Times New Roman,serif" font-size="14.00">created_at :datetime</text>
<text text-anchor="start" x="412.5" y="-399.3" font-family="Times New Roman,serif" font-size="14.00">updated_at :datetime</text>
<text text-anchor="start" x="412.5" y="-384.3" font-family="Times New Roman,serif" font-size="14.00">confirmation_token :varchar</text>
<text text-anchor="start" x="412.5" y="-369.3" font-family="Times New Roman,serif" font-size="14.00">confirmed_at :datetime</text>
<text text-anchor="start" x="412.5" y="-354.3" font-family="Times New Roman,serif" font-size="14.00">confirmation_sent_at :datetime</text>
<text text-anchor="start" x="412.5" y="-339.3" font-family="Times New Roman,serif" font-size="14.00">unconfirmed_email :varchar</text>
<text text-anchor="start" x="412.5" y="-324.3" font-family="Times New Roman,serif" font-size="14.00">username :varchar</text>
</g>
<!-- User&#45;&gt;Post -->
<g id="edge2" class="edge"><title>User&#45;&gt;Post</title>
<path fill="none" stroke="#b181d8" d="M482.395,-308.507C476.596,-265.692 473.635,-217.141 479.5,-173 480.649,-164.353 482.316,-155.403 484.272,-146.551"/>
<ellipse fill="none" stroke="#b181d8" cx="482.952" cy="-312.471" rx="4.00001" ry="4.00001"/>
<polygon fill="#b181d8" stroke="#b181d8" points="484.317,-146.358 490.974,-137.644 485.454,-141.489 486.592,-136.62 486.592,-136.62 486.592,-136.62 485.454,-141.489 482.21,-135.597 484.317,-146.358 484.317,-146.358"/>
</g>
<!-- User&#45;&gt;Topic -->
<g id="edge3" class="edge"><title>User&#45;&gt;Topic</title>
<path fill="none" stroke="#aab10f" d="M535.628,-308.208C537.12,-301.827 538.586,-295.557 540.001,-289.506"/>
<ellipse fill="none" stroke="#aab10f" cx="534.659" cy="-312.352" rx="4.00001" ry="4.00001"/>
<polygon fill="#aab10f" stroke="#aab10f" points="540.053,-289.286 546.711,-280.573 541.191,-284.417 542.329,-279.548 542.329,-279.548 542.329,-279.548 541.191,-284.417 537.948,-278.524 540.053,-289.286 540.053,-289.286"/>
</g>
</g>
</svg>
