<?xml version="1.0" encoding="UTF-8" standalone="no"?>
<!DOCTYPE svg PUBLIC "-//W3C//DTD SVG 1.1//EN"
 "http://www.w3.org/Graphics/SVG/1.1/DTD/svg11.dtd">
<!-- Generated by graphviz version 2.38.0 (20140413.2041)
 -->
<!-- Title: models_diagram Pages: 1 -->
<svg width="675pt" height="408pt"
 viewBox="0.00 0.00 674.50 408.00" xmlns="http://www.w3.org/2000/svg" xmlns:xlink="http://www.w3.org/1999/xlink">
<g id="graph0" class="graph" transform="scale(1 1) rotate(0) translate(4 404)">
<title>models_diagram</title>
<polygon fill="none" stroke="none" points="-4,4 -4,-404 670.5,-404 670.5,4 -4,4"/>
<!-- _diagram_info -->
<g id="node1" class="node"><title>_diagram_info</title>
<text text-anchor="start" x="8" y="-311.1" font-family="Times New Roman,serif" font-size="13.00">Models diagram</text>
<text text-anchor="start" x="8" y="-297.1" font-family="Times New Roman,serif" font-size="13.00">Date: Jan 14 2019 &#45; 00:07</text>
<text text-anchor="start" x="8" y="-283.1" font-family="Times New Roman,serif" font-size="13.00">Migration version: 20190111124635</text>
<text text-anchor="start" x="8" y="-269.1" font-family="Times New Roman,serif" font-size="13.00">Generated by RailRoady 1.5.3</text>
<text text-anchor="start" x="8" y="-255.1" font-family="Times New Roman,serif" font-size="13.00">http://railroady.prestonlee.com</text>
</g>
<!-- ApplicationRecord -->
<g id="node2" class="node"><title>ApplicationRecord</title>
<ellipse fill="none" stroke="black" cx="306.5" cy="-286.5" rx="79.8859" ry="18"/>
<text text-anchor="middle" x="306.5" y="-282.8" font-family="Times New Roman,serif" font-size="14.00">ApplicationRecord</text>
</g>
<!-- Post -->
<g id="node3" class="node"><title>Post</title>
<path fill="none" stroke="black" d="M378.5,-0.5C378.5,-0.5 486.5,-0.5 486.5,-0.5 492.5,-0.5 498.5,-6.5 498.5,-12.5 498.5,-12.5 498.5,-124.5 498.5,-124.5 498.5,-130.5 492.5,-136.5 486.5,-136.5 486.5,-136.5 378.5,-136.5 378.5,-136.5 372.5,-136.5 366.5,-130.5 366.5,-124.5 366.5,-124.5 366.5,-12.5 366.5,-12.5 366.5,-6.5 372.5,-0.5 378.5,-0.5"/>
<text text-anchor="middle" x="432.5" y="-121.3" font-family="Times New Roman,serif" font-size="14.00">Post</text>
<polyline fill="none" stroke="black" points="366.5,-113.5 498.5,-113.5 "/>
<text text-anchor="start" x="374.5" y="-98.3" font-family="Times New Roman,serif" font-size="14.00">name :varchar</text>
<text text-anchor="start" x="374.5" y="-83.3" font-family="Times New Roman,serif" font-size="14.00">body :text</text>
<text text-anchor="start" x="374.5" y="-68.3" font-family="Times New Roman,serif" font-size="14.00">topic_id :integer</text>
<text text-anchor="start" x="374.5" y="-53.3" font-family="Times New Roman,serif" font-size="14.00">created_at :datetime</text>
<text text-anchor="start" x="374.5" y="-38.3" font-family="Times New Roman,serif" font-size="14.00">updated_at :datetime</text>
<text text-anchor="start" x="374.5" y="-23.3" font-family="Times New Roman,serif" font-size="14.00">user_id :integer</text>
<text text-anchor="start" x="374.5" y="-8.3" font-family="Times New Roman,serif" font-size="14.00">id :integer</text>
</g>
<!-- Topic -->
<g id="node4" class="node"><title>Topic</title>
<path fill="none" stroke="black" d="M528.5,-15.5C528.5,-15.5 636.5,-15.5 636.5,-15.5 642.5,-15.5 648.5,-21.5 648.5,-27.5 648.5,-27.5 648.5,-109.5 648.5,-109.5 648.5,-115.5 642.5,-121.5 636.5,-121.5 636.5,-121.5 528.5,-121.5 528.5,-121.5 522.5,-121.5 516.5,-115.5 516.5,-109.5 516.5,-109.5 516.5,-27.5 516.5,-27.5 516.5,-21.5 522.5,-15.5 528.5,-15.5"/>
<text text-anchor="middle" x="582.5" y="-106.3" font-family="Times New Roman,serif" font-size="14.00">Topic</text>
<polyline fill="none" stroke="black" points="516.5,-98.5 648.5,-98.5 "/>
<text text-anchor="start" x="524.5" y="-83.3" font-family="Times New Roman,serif" font-size="14.00">title :varchar</text>
<text text-anchor="start" x="524.5" y="-68.3" font-family="Times New Roman,serif" font-size="14.00">created_at :datetime</text>
<text text-anchor="start" x="524.5" y="-53.3" font-family="Times New Roman,serif" font-size="14.00">updated_at :datetime</text>
<text text-anchor="start" x="524.5" y="-38.3" font-family="Times New Roman,serif" font-size="14.00">user_id :integer</text>
<text text-anchor="start" x="524.5" y="-23.3" font-family="Times New Roman,serif" font-size="14.00">id :integer</text>
</g>
<!-- Topic&#45;&gt;Topic -->
<g id="edge1" class="edge"><title>Topic&#45;&gt;Topic</title>
<path fill="none" stroke="#516477" d="M655.531,-101.109C662.26,-94.365 666.5,-83.4955 666.5,-68.5 666.5,-54.4226 662.764,-43.9814 656.739,-37.1764"/>
<ellipse fill="none" stroke="#516477" cx="651.922" cy="-103.769" rx="4.00002" ry="4.00002"/>
<polygon fill="#516477" stroke="#516477" points="656.563,-37.0384 651.483,-27.3205 652.632,-33.9483 648.701,-30.8583 648.701,-30.8583 648.701,-30.8583 652.632,-33.9483 645.92,-34.3961 656.563,-37.0384 656.563,-37.0384"/>
</g>
<!-- User -->
<g id="node5" class="node"><title>User</title>
<path fill="none" stroke="black" d="M416.5,-173.5C416.5,-173.5 598.5,-173.5 598.5,-173.5 604.5,-173.5 610.5,-179.5 610.5,-185.5 610.5,-185.5 610.5,-387.5 610.5,-387.5 610.5,-393.5 604.5,-399.5 598.5,-399.5 598.5,-399.5 416.5,-399.5 416.5,-399.5 410.5,-399.5 404.5,-393.5 404.5,-387.5 404.5,-387.5 404.5,-185.5 404.5,-185.5 404.5,-179.5 410.5,-173.5 416.5,-173.5"/>
<text text-anchor="middle" x="507.5" y="-384.3" font-family="Times New Roman,serif" font-size="14.00">User</text>
<polyline fill="none" stroke="black" points="404.5,-376.5 610.5,-376.5 "/>
<text text-anchor="start" x="412.5" y="-361.3" font-family="Times New Roman,serif" font-size="14.00">id :integer</text>
<text text-anchor="start" x="412.5" y="-346.3" font-family="Times New Roman,serif" font-size="14.00">email :varchar</text>
<text text-anchor="start" x="412.5" y="-331.3" font-family="Times New Roman,serif" font-size="14.00">encrypted_password :varchar</text>
<text text-anchor="start" x="412.5" y="-316.3" font-family="Times New Roman,serif" font-size="14.00">reset_password_token :varchar</text>
<text text-anchor="start" x="412.5" y="-301.3" font-family="Times New Roman,serif" font-size="14.00">reset_password_sent_at :datetime</text>
<text text-anchor="start" x="412.5" y="-286.3" font-family="Times New Roman,serif" font-size="14.00">remember_created_at :datetime</text>
<text text-anchor="start" x="412.5" y="-271.3" font-family="Times New Roman,serif" font-size="14.00">created_at :datetime</text>
<text text-anchor="start" x="412.5" y="-256.3" font-family="Times New Roman,serif" font-size="14.00">updated_at :datetime</text>
<text text-anchor="start" x="412.5" y="-241.3" font-family="Times New Roman,serif" font-size="14.00">confirmation_token :varchar</text>
<text text-anchor="start" x="412.5" y="-226.3" font-family="Times New Roman,serif" font-size="14.00">confirmed_at :datetime</text>
<text text-anchor="start" x="412.5" y="-211.3" font-family="Times New Roman,serif" font-size="14.00">confirmation_sent_at :datetime</text>
<text text-anchor="start" x="412.5" y="-196.3" font-family="Times New Roman,serif" font-size="14.00">unconfirmed_email :varchar</text>
<text text-anchor="start" x="412.5" y="-181.3" font-family="Times New Roman,serif" font-size="14.00">username :varchar</text>
</g>
<!-- User&#45;&gt;Post -->
<g id="edge2" class="edge"><title>User&#45;&gt;Post</title>
<path fill="none" stroke="#4ed431" d="M465.926,-165.765C463.66,-159.242 461.415,-152.776 459.224,-146.465"/>
<ellipse fill="none" stroke="#4ed431" cx="467.26" cy="-169.609" rx="4.00001" ry="4.00001"/>
<polygon fill="#4ed431" stroke="#4ed431" points="459.11,-146.135 460.08,-135.212 457.469,-141.412 455.829,-136.689 455.829,-136.689 455.829,-136.689 457.469,-141.412 451.578,-138.165 459.11,-146.135 459.11,-146.135"/>
</g>
<!-- User&#45;&gt;Topic -->
<g id="edge3" class="edge"><title>User&#45;&gt;Topic</title>
<path fill="none" stroke="#e61b76" d="M549.071,-165.775C553.183,-153.934 557.228,-142.284 561.006,-131.402"/>
<ellipse fill="none" stroke="#e61b76" cx="547.74" cy="-169.609" rx="4.00001" ry="4.00001"/>
<polygon fill="#e61b76" stroke="#e61b76" points="561.115,-131.088 568.646,-123.117 562.755,-126.365 564.395,-121.641 564.395,-121.641 564.395,-121.641 562.755,-126.365 560.144,-120.165 561.115,-131.088 561.115,-131.088"/>
</g>
</g>
</svg>
