<?xml version="1.0" encoding="UTF-8" standalone="no"?>
<!DOCTYPE svg PUBLIC "-//W3C//DTD SVG 1.1//EN"
 "http://www.w3.org/Graphics/SVG/1.1/DTD/svg11.dtd">
<!-- Generated by graphviz version 2.38.0 (20140413.2041)
 -->
<!-- Title: models_diagram Pages: 1 -->
<svg width="512pt" height="158pt"
 viewBox="0.00 0.00 512.00 158.00" xmlns="http://www.w3.org/2000/svg" xmlns:xlink="http://www.w3.org/1999/xlink">
<g id="graph0" class="graph" transform="scale(1 1) rotate(0) translate(4 154)">
<title>models_diagram</title>
<polygon fill="none" stroke="none" points="-4,4 -4,-154 507.997,-154 507.997,4 -4,4"/>
<!-- _diagram_info -->
<g id="node1" class="node"><title>_diagram_info</title>
<text text-anchor="start" x="8" y="-135.6" font-family="Times New Roman,serif" font-size="13.00">Models diagram</text>
<text text-anchor="start" x="8" y="-121.6" font-family="Times New Roman,serif" font-size="13.00">Date: Jan 14 2019 &#45; 00:16</text>
<text text-anchor="start" x="8" y="-107.6" font-family="Times New Roman,serif" font-size="13.00">Migration version: 20190111124635</text>
<text text-anchor="start" x="8" y="-93.6" font-family="Times New Roman,serif" font-size="13.00">Generated by RailRoady 1.5.3</text>
<text text-anchor="start" x="8" y="-79.6" font-family="Times New Roman,serif" font-size="13.00">http://railroady.prestonlee.com</text>
</g>
<!-- ApplicationRecord -->
<g id="node2" class="node"><title>ApplicationRecord</title>
<ellipse fill="none" stroke="black" cx="306.5" cy="-111" rx="79.8859" ry="18"/>
<text text-anchor="middle" x="306.5" y="-107.3" font-family="Times New Roman,serif" font-size="14.00">ApplicationRecord</text>
</g>
<!-- Post -->
<g id="node3" class="node"><title>Post</title>
<ellipse fill="none" stroke="black" cx="393.5" cy="-18" rx="27.0966" ry="18"/>
<text text-anchor="middle" x="393.5" y="-14.3" font-family="Times New Roman,serif" font-size="14.00">Post</text>
</g>
<!-- Topic -->
<g id="node4" class="node"><title>Topic</title>
<ellipse fill="none" stroke="black" cx="471.5" cy="-18" rx="32.4942" ry="18"/>
<text text-anchor="middle" x="471.5" y="-14.3" font-family="Times New Roman,serif" font-size="14.00">Topic</text>
</g>
<!-- User -->
<g id="node5" class="node"><title>User</title>
<ellipse fill="none" stroke="black" cx="432.5" cy="-111" rx="27.8951" ry="18"/>
<text text-anchor="middle" x="432.5" y="-107.3" font-family="Times New Roman,serif" font-size="14.00">User</text>
</g>
<!-- User&#45;&gt;Post -->
<g id="edge1" class="edge"><title>User&#45;&gt;Post</title>
<path fill="none" stroke="#b76444" d="M422.182,-85.9252C416.76,-73.2742 410.111,-57.7594 404.58,-44.8543"/>
<ellipse fill="none" stroke="#b76444" cx="423.771" cy="-89.6326" rx="4.00002" ry="4.00002"/>
<polygon fill="#b76444" stroke="#b76444" points="404.547,-44.7764 404.744,-33.8123 402.577,-40.1807 400.608,-35.585 400.608,-35.585 400.608,-35.585 402.577,-40.1807 396.472,-37.3577 404.547,-44.7764 404.547,-44.7764"/>
</g>
<!-- User&#45;&gt;Topic -->
<g id="edge2" class="edge"><title>User&#45;&gt;Topic</title>
<path fill="none" stroke="#6d05c4" d="M442.818,-85.9252C448.24,-73.2742 454.889,-57.7594 460.42,-44.8543"/>
<ellipse fill="none" stroke="#6d05c4" cx="441.229" cy="-89.6326" rx="4.00002" ry="4.00002"/>
<polygon fill="#6d05c4" stroke="#6d05c4" points="460.453,-44.7764 468.528,-37.3577 462.423,-40.1807 464.392,-35.585 464.392,-35.585 464.392,-35.585 462.423,-40.1807 460.256,-33.8123 460.453,-44.7764 460.453,-44.7764"/>
</g>
</g>
</svg>
