<?xml version="1.0" encoding="UTF-8" standalone="no"?>
<!DOCTYPE svg PUBLIC "-//W3C//DTD SVG 1.1//EN"
 "http://www.w3.org/Graphics/SVG/1.1/DTD/svg11.dtd">
<!-- Generated by graphviz version 2.38.0 (20140413.2041)
 -->
<!-- Title: models_diagram Pages: 1 -->
<svg width="503pt" height="230pt"
 viewBox="0.00 0.00 503.00 230.00" xmlns="http://www.w3.org/2000/svg" xmlns:xlink="http://www.w3.org/1999/xlink">
<g id="graph0" class="graph" transform="scale(1 1) rotate(0) translate(4 226)">
<title>models_diagram</title>
<polygon fill="none" stroke="none" points="-4,4 -4,-226 498.997,-226 498.997,4 -4,4"/>
<!-- _diagram_info -->
<g id="node1" class="node"><title>_diagram_info</title>
<text text-anchor="start" x="8" y="-207.6" font-family="Times New Roman,serif" font-size="13.00">Models diagram</text>
<text text-anchor="start" x="8" y="-193.6" font-family="Times New Roman,serif" font-size="13.00">Date: Jan 14 2019 &#45; 00:24</text>
<text text-anchor="start" x="8" y="-179.6" font-family="Times New Roman,serif" font-size="13.00">Migration version: 20190111124635</text>
<text text-anchor="start" x="8" y="-165.6" font-family="Times New Roman,serif" font-size="13.00">Generated by RailRoady 1.5.3</text>
<text text-anchor="start" x="8" y="-151.6" font-family="Times New Roman,serif" font-size="13.00">http://railroady.prestonlee.com</text>
</g>
<!-- ApplicationRecord -->
<g id="node2" class="node"><title>ApplicationRecord</title>
<ellipse fill="none" stroke="black" cx="306.5" cy="-183" rx="79.8859" ry="18"/>
<text text-anchor="middle" x="306.5" y="-179.3" font-family="Times New Roman,serif" font-size="14.00">ApplicationRecord</text>
</g>
<!-- Post -->
<g id="node3" class="node"><title>Post</title>
<ellipse fill="none" stroke="black" cx="432.5" cy="-18" rx="27.0966" ry="18"/>
<text text-anchor="middle" x="432.5" y="-14.3" font-family="Times New Roman,serif" font-size="14.00">Post</text>
</g>
<!-- Topic -->
<g id="node4" class="node"><title>Topic</title>
<ellipse fill="none" stroke="black" cx="462.5" cy="-90" rx="32.4942" ry="18"/>
<text text-anchor="middle" x="462.5" y="-86.3" font-family="Times New Roman,serif" font-size="14.00">Topic</text>
</g>
<!-- Topic&#45;&gt;Post -->
<g id="edge1" class="edge"><title>Topic&#45;&gt;Post</title>
<path fill="none" stroke="#3d0ce3" d="M452.193,-64.9496C449.394,-58.4184 446.352,-51.3217 443.516,-44.7031"/>
<ellipse fill="none" stroke="#3d0ce3" cx="453.815" cy="-68.7344" rx="4.00002" ry="4.00002"/>
<polygon fill="#3d0ce3" stroke="#3d0ce3" points="443.498,-44.6614 443.695,-33.6973 441.528,-40.0657 439.559,-35.4699 439.559,-35.4699 439.559,-35.4699 441.528,-40.0657 435.422,-37.2426 443.498,-44.6614 443.498,-44.6614"/>
</g>
<!-- User -->
<g id="node5" class="node"><title>User</title>
<ellipse fill="none" stroke="black" cx="432.5" cy="-183" rx="27.8951" ry="18"/>
<text text-anchor="middle" x="432.5" y="-179.3" font-family="Times New Roman,serif" font-size="14.00">User</text>
</g>
<!-- User&#45;&gt;Post -->
<g id="edge2" class="edge"><title>User&#45;&gt;Post</title>
<path fill="none" stroke="#aaee70" d="M427.095,-156.882C422.987,-134.584 418.51,-101.118 421.5,-72 422.377,-63.455 424.031,-54.2552 425.794,-45.9576"/>
<ellipse fill="none" stroke="#aaee70" cx="427.876" cy="-160.922" rx="4.00001" ry="4.00001"/>
<polygon fill="#aaee70" stroke="#aaee70" points="425.829,-45.8005 432.425,-37.0399 426.932,-40.9237 428.036,-36.0469 428.036,-36.0469 428.036,-36.0469 426.932,-40.9237 423.647,-35.054 425.829,-45.8005 425.829,-45.8005"/>
</g>
<!-- User&#45;&gt;Topic -->
<g id="edge3" class="edge"><title>User&#45;&gt;Topic</title>
<path fill="none" stroke="#1d5791" d="M440.563,-157.543C444.648,-145.152 449.613,-130.09 453.786,-117.432"/>
<ellipse fill="none" stroke="#1d5791" cx="439.255" cy="-161.51" rx="4.00001" ry="4.00001"/>
<polygon fill="#1d5791" stroke="#1d5791" points="453.8,-117.39 461.205,-109.302 455.365,-112.642 456.931,-107.893 456.931,-107.893 456.931,-107.893 455.365,-112.642 452.657,-106.484 453.8,-117.39 453.8,-117.39"/>
</g>
</g>
</svg>
